%FSLAX34Y34*%
%MOMM*%
%LNSILK_BOTTOM*%
G71*
G01*
%ADD10C, 0.22*%
%ADD11C, 0.28*%
%ADD12C, 0.20*%
%ADD13C, 0.33*%
%LPD*%
G54D10*
X603900Y-1558900D02*
X597233Y-1541122D01*
X590567Y-1558900D01*
G54D10*
X601233Y-1552233D02*
X593233Y-1552233D01*
G54D10*
X585700Y-1547789D02*
X579033Y-1541122D01*
X579033Y-1558900D01*
G54D10*
X293450Y-1556400D02*
X293450Y-1538622D01*
X286783Y-1538622D01*
X284117Y-1539733D01*
X282783Y-1541956D01*
X282783Y-1544178D01*
X284117Y-1546400D01*
X286783Y-1547511D01*
X284117Y-1548622D01*
X282783Y-1550844D01*
X282783Y-1553067D01*
X284117Y-1555289D01*
X286783Y-1556400D01*
X293450Y-1556400D01*
G54D10*
X293450Y-1547511D02*
X286783Y-1547511D01*
G54D10*
X267183Y-1556400D02*
X277850Y-1556400D01*
X277850Y-1555289D01*
X276517Y-1553067D01*
X268517Y-1546400D01*
X267183Y-1544178D01*
X267183Y-1541956D01*
X268517Y-1539733D01*
X271183Y-1538622D01*
X273850Y-1538622D01*
X276517Y-1539733D01*
X277850Y-1541956D01*
G54D10*
X339100Y-1556750D02*
X332433Y-1538972D01*
X325767Y-1556750D01*
G54D10*
X336433Y-1550083D02*
X328433Y-1550083D01*
G54D10*
X310233Y-1556750D02*
X320900Y-1556750D01*
X320900Y-1555639D01*
X319567Y-1553417D01*
X311567Y-1546750D01*
X310233Y-1544528D01*
X310233Y-1542306D01*
X311567Y-1540083D01*
X314233Y-1538972D01*
X316900Y-1538972D01*
X319567Y-1540083D01*
X320900Y-1542306D01*
G54D10*
X640700Y-1559250D02*
X640700Y-1541472D01*
X634033Y-1541472D01*
X631367Y-1542583D01*
X630033Y-1544806D01*
X630033Y-1547028D01*
X631367Y-1549250D01*
X634033Y-1550361D01*
X631367Y-1551472D01*
X630033Y-1553694D01*
X630033Y-1555917D01*
X631367Y-1558139D01*
X634033Y-1559250D01*
X640700Y-1559250D01*
G54D10*
X640700Y-1550361D02*
X634033Y-1550361D01*
G54D10*
X625100Y-1548139D02*
X618433Y-1541472D01*
X618433Y-1559250D01*
G54D11*
X528550Y-1245350D02*
X550772Y-1245350D01*
G54D11*
X529939Y-1229250D02*
X528550Y-1231916D01*
X528550Y-1235250D01*
X529939Y-1238584D01*
X532717Y-1239250D01*
X537439Y-1239250D01*
X540217Y-1237583D01*
X541050Y-1234250D01*
X540217Y-1230916D01*
X538272Y-1229250D01*
X535494Y-1229250D01*
X535494Y-1239250D01*
G54D11*
X528550Y-1219816D02*
X549383Y-1219816D01*
X550772Y-1218150D01*
X549939Y-1216483D01*
G54D11*
X541050Y-1223150D02*
X541050Y-1216483D01*
G54D11*
X550772Y-1207017D02*
X529939Y-1207016D01*
X528550Y-1205350D01*
X529106Y-1203684D01*
G54D11*
X541050Y-1210350D02*
X541050Y-1203684D01*
G54D11*
X528550Y-1191150D02*
X541050Y-1191150D01*
G54D11*
X538828Y-1191150D02*
X541050Y-1187817D01*
X540217Y-1184483D01*
X538272Y-1182817D01*
X528550Y-1182816D01*
G54D11*
X538828Y-1182817D02*
X541050Y-1179483D01*
X540217Y-1176150D01*
X538272Y-1174484D01*
X528550Y-1174484D01*
G54D11*
X531883Y-1158350D02*
X537439Y-1158350D01*
X540217Y-1160017D01*
X541050Y-1163350D01*
X540217Y-1166684D01*
X537439Y-1168350D01*
X531883Y-1168350D01*
X529106Y-1166683D01*
X528550Y-1163350D01*
X529106Y-1160016D01*
X531883Y-1158350D01*
G54D11*
X550772Y-1148917D02*
X529939Y-1148916D01*
X528550Y-1147250D01*
X529106Y-1145584D01*
G54D11*
X541050Y-1152250D02*
X541050Y-1145584D01*
G54D11*
X531883Y-1129450D02*
X537439Y-1129450D01*
X540217Y-1131116D01*
X541050Y-1134450D01*
X540217Y-1137783D01*
X537439Y-1139450D01*
X531883Y-1139450D01*
X529106Y-1137784D01*
X528550Y-1134450D01*
X529106Y-1131117D01*
X531883Y-1129450D01*
G54D11*
X528550Y-1123350D02*
X541050Y-1123350D01*
G54D11*
X538272Y-1123350D02*
X541050Y-1120017D01*
X541050Y-1116684D01*
G54D11*
X356850Y-1440600D02*
X369350Y-1440600D01*
G54D11*
X366572Y-1440600D02*
X369350Y-1437267D01*
X369350Y-1433933D01*
G54D11*
X356850Y-1427800D02*
X369350Y-1427800D01*
G54D11*
X373517Y-1427800D02*
X373517Y-1427800D01*
G54D11*
X352683Y-1421700D02*
X351294Y-1418367D01*
X351294Y-1416033D01*
X352683Y-1412700D01*
X355461Y-1411700D01*
X369350Y-1411700D01*
G54D11*
X365739Y-1411700D02*
X368517Y-1413367D01*
X369350Y-1416700D01*
X368517Y-1420033D01*
X365739Y-1421700D01*
X360183Y-1421700D01*
X357406Y-1420033D01*
X356850Y-1416700D01*
X357406Y-1413367D01*
X360183Y-1411700D01*
G54D11*
X356850Y-1405600D02*
X379072Y-1405600D01*
G54D11*
X365739Y-1405600D02*
X368517Y-1403933D01*
X369350Y-1400600D01*
X368517Y-1397267D01*
X365739Y-1395600D01*
X356850Y-1395600D01*
G54D11*
X379072Y-1386166D02*
X358239Y-1386167D01*
X356850Y-1384500D01*
X357406Y-1382834D01*
G54D11*
X369350Y-1389500D02*
X369350Y-1382834D01*
G54D11*
X356850Y-1370300D02*
X369350Y-1370300D01*
G54D11*
X367128Y-1370300D02*
X369350Y-1366967D01*
X368517Y-1363633D01*
X366572Y-1361966D01*
X356850Y-1361966D01*
G54D11*
X367128Y-1361967D02*
X369350Y-1358634D01*
X368517Y-1355300D01*
X366572Y-1353634D01*
X356850Y-1353634D01*
G54D11*
X360183Y-1337500D02*
X365739Y-1337500D01*
X368517Y-1339167D01*
X369350Y-1342500D01*
X368517Y-1345833D01*
X365739Y-1347500D01*
X360183Y-1347500D01*
X357406Y-1345833D01*
X356850Y-1342500D01*
X357406Y-1339167D01*
X360183Y-1337500D01*
G54D11*
X379072Y-1328067D02*
X358239Y-1328066D01*
X356850Y-1326400D01*
X357406Y-1324733D01*
G54D11*
X369350Y-1331400D02*
X369350Y-1324734D01*
G54D11*
X360183Y-1308600D02*
X365739Y-1308600D01*
X368517Y-1310266D01*
X369350Y-1313600D01*
X368517Y-1316934D01*
X365739Y-1318600D01*
X360183Y-1318600D01*
X357406Y-1316933D01*
X356850Y-1313600D01*
X357406Y-1310266D01*
X360183Y-1308600D01*
G54D11*
X356850Y-1302500D02*
X369350Y-1302500D01*
G54D11*
X366572Y-1302500D02*
X369350Y-1299166D01*
X369350Y-1295834D01*
G54D12*
X512700Y-1419500D02*
X395700Y-1419500D01*
X394700Y-1418500D01*
X394700Y-1334500D01*
X512700Y-1334500D01*
X512700Y-1419500D01*
G54D13*
X524967Y-1363100D02*
X524967Y-1347100D01*
G54D13*
X531633Y-1355100D02*
X518300Y-1355100D01*
G54D13*
X384917Y-1363100D02*
X384917Y-1347100D01*
G54D12*
X512700Y-1409500D02*
X394700Y-1409500D01*
G54D12*
X394700Y-1093200D02*
X511700Y-1093200D01*
X512700Y-1094200D01*
X512700Y-1178200D01*
X394700Y-1178200D01*
X394700Y-1093200D01*
G54D13*
X382433Y-1149600D02*
X382433Y-1165600D01*
G54D13*
X375767Y-1157600D02*
X389100Y-1157600D01*
G54D13*
X522483Y-1149600D02*
X522483Y-1165600D01*
G54D12*
X394700Y-1103200D02*
X512700Y-1103200D01*
G54D12*
X266700Y-1464600D02*
X266700Y-1524600D01*
X286700Y-1524600D01*
G54D12*
X266700Y-1464600D02*
X341700Y-1464600D01*
X341700Y-1524600D01*
X321700Y-1524600D01*
G54D12*
X647700Y-1524662D02*
X647700Y-1464662D01*
X627700Y-1464662D01*
G54D12*
X647700Y-1524662D02*
X572700Y-1524662D01*
X572700Y-1464662D01*
X592700Y-1464662D01*
G54D12*
X394700Y-1194800D02*
X511700Y-1194800D01*
X512700Y-1195800D01*
X512700Y-1279800D01*
X394700Y-1279800D01*
X394700Y-1194800D01*
G54D13*
X382433Y-1251200D02*
X382433Y-1267200D01*
G54D13*
X375767Y-1259200D02*
X389100Y-1259200D01*
G54D13*
X522483Y-1251200D02*
X522483Y-1267200D01*
G54D12*
X394700Y-1204800D02*
X512700Y-1204800D01*
G54D12*
X512700Y-1521100D02*
X395700Y-1521100D01*
X394700Y-1520100D01*
X394700Y-1436100D01*
X512700Y-1436100D01*
X512700Y-1521100D01*
G54D13*
X524967Y-1464700D02*
X524967Y-1448700D01*
G54D13*
X531633Y-1456700D02*
X518300Y-1456700D01*
G54D13*
X384917Y-1464700D02*
X384917Y-1448700D01*
G54D12*
X512700Y-1511100D02*
X394700Y-1511100D01*
M02*
