%FSLAX34Y34*%
%MOMM*%
%LNCOPPER_TOP*%
G71*
G01*
%ADD10C, 5.00*%
%ADD11C, 1.80*%
%ADD12C, 0.80*%
%ADD13C, 1.90*%
%ADD14C, 1.90*%
%ADD15C, 0.22*%
%ADD16C, 1.80*%
%ADD17C, 0.50*%
%ADD18C, 3.50*%
%ADD19C, 3.00*%
%ADD20C, 1.80*%
%ADD21C, 1.00*%
%ADD22R, 5.08X5.08*%
%LPD*%
X110000Y-1635000D02*
G54D10*
D03*
X770000Y-1635000D02*
G54D10*
D03*
X101600Y-228600D02*
G54D11*
D03*
X101500Y-279400D02*
G54D11*
D03*
G54D12*
X177800Y-241300D02*
X138925Y-241300D01*
X138925Y-279400D01*
X101500Y-279400D01*
G54D12*
X330200Y-114300D02*
X266700Y-114300D01*
X266700Y-165100D01*
X241300Y-190500D01*
X241300Y-1257300D01*
X215900Y-1257300D01*
G54D12*
X330200Y-139700D02*
X279400Y-139700D01*
X279400Y-177800D01*
X254000Y-203200D01*
X254000Y-1282700D01*
X215900Y-1282700D01*
G54D12*
X215900Y-1308100D02*
X266700Y-1308100D01*
X266700Y-215900D01*
X292100Y-190500D01*
X292100Y-165100D01*
X330200Y-165100D01*
G54D12*
X215900Y-1231900D02*
X190500Y-1231900D01*
X190500Y-1295400D01*
X190500Y-1327150D01*
X279400Y-1327150D01*
X279400Y-228600D01*
X304800Y-203200D01*
X304800Y-190500D01*
X330200Y-190500D01*
G54D12*
X215900Y-1346200D02*
X292100Y-1346200D01*
X292100Y-241300D01*
X317500Y-215900D01*
X330200Y-215900D01*
G54D12*
X330200Y-241300D02*
X317500Y-241300D01*
X304800Y-254000D01*
X304800Y-1371600D01*
X215900Y-1371600D01*
X215900Y-292100D02*
G54D13*
D03*
X215900Y-393700D02*
G54D13*
D03*
X384650Y-90400D02*
G54D14*
D03*
X414650Y-90400D02*
G54D14*
D03*
X444650Y-90400D02*
G54D14*
D03*
X474650Y-90400D02*
G54D14*
D03*
X504650Y-90400D02*
G54D14*
D03*
X698500Y-1130300D02*
G54D13*
D03*
X698500Y-1155700D02*
G54D13*
D03*
X698500Y-1181100D02*
G54D13*
D03*
X698500Y-1206500D02*
G54D13*
D03*
X698500Y-1231900D02*
G54D13*
D03*
X698500Y-1257300D02*
G54D13*
D03*
X698500Y-1308100D02*
G54D13*
D03*
X698500Y-1333500D02*
G54D13*
D03*
X698500Y-1358900D02*
G54D13*
D03*
X698500Y-1384300D02*
G54D13*
D03*
X698500Y-1409700D02*
G54D13*
D03*
X698500Y-1435100D02*
G54D13*
D03*
X215900Y-1130300D02*
G54D13*
D03*
X215900Y-1155700D02*
G54D13*
D03*
X215900Y-1181100D02*
G54D13*
D03*
X215900Y-1206500D02*
G54D13*
D03*
X215900Y-1231900D02*
G54D13*
D03*
X215900Y-1257300D02*
G54D13*
D03*
X215900Y-1282700D02*
G54D13*
D03*
X215900Y-1308100D02*
G54D13*
D03*
X215900Y-1346200D02*
G54D13*
D03*
X215900Y-1371600D02*
G54D13*
D03*
X215900Y-1397000D02*
G54D13*
D03*
X215900Y-1422400D02*
G54D13*
D03*
X215900Y-1447800D02*
G54D13*
D03*
X215900Y-1473200D02*
G54D13*
D03*
X215900Y-1498600D02*
G54D13*
D03*
X215900Y-1524000D02*
G54D13*
D03*
G54D12*
X171450Y-546100D02*
X171450Y-1539875D01*
X673100Y-1543050D01*
X673100Y-1384300D01*
X698500Y-1384300D01*
X846900Y-114300D02*
G54D13*
D03*
X846900Y-139700D02*
G54D13*
D03*
X846900Y-165100D02*
G54D13*
D03*
X846900Y-190500D02*
G54D13*
D03*
X846900Y-215900D02*
G54D13*
D03*
X846900Y-241300D02*
G54D13*
D03*
X177800Y-63500D02*
G54D13*
D03*
X177800Y-88900D02*
G54D13*
D03*
X177800Y-114300D02*
G54D13*
D03*
X177800Y-139700D02*
G54D13*
D03*
X177800Y-165100D02*
G54D13*
D03*
X177800Y-190500D02*
G54D13*
D03*
X177800Y-215900D02*
G54D13*
D03*
X177800Y-241300D02*
G54D13*
D03*
X177800Y-266700D02*
G54D13*
D03*
X177800Y-292100D02*
G54D13*
D03*
X177800Y-317500D02*
G54D13*
D03*
X177800Y-342900D02*
G54D13*
D03*
X177800Y-368300D02*
G54D13*
D03*
X177800Y-393700D02*
G54D13*
D03*
X178600Y-419100D02*
G54D13*
D03*
X330200Y-63500D02*
G54D13*
D03*
X330200Y-114300D02*
G54D13*
D03*
X330200Y-139700D02*
G54D13*
D03*
X330200Y-165100D02*
G54D13*
D03*
X330200Y-190500D02*
G54D13*
D03*
X330200Y-215900D02*
G54D13*
D03*
X330200Y-241300D02*
G54D13*
D03*
X330200Y-266700D02*
G54D13*
D03*
X330200Y-292100D02*
G54D13*
D03*
X330200Y-317500D02*
G54D13*
D03*
X330200Y-342900D02*
G54D13*
D03*
X330200Y-368300D02*
G54D13*
D03*
X330200Y-393700D02*
G54D13*
D03*
X330200Y-419100D02*
G54D13*
D03*
X330200Y-88900D02*
G54D13*
D03*
G54D12*
X698500Y-1257300D02*
X723900Y-1257300D01*
X723900Y-1555750D01*
X50800Y-1555750D01*
X50800Y-152400D01*
X120650Y-152400D01*
X120650Y-215900D01*
X177800Y-215900D01*
G54D12*
X698500Y-1231900D02*
X736600Y-1231900D01*
X736600Y-1568450D01*
X38100Y-1568450D01*
X38100Y-139700D01*
X133350Y-139700D01*
X133350Y-190500D01*
X177800Y-190500D01*
G54D12*
X177800Y-165100D02*
X146050Y-165100D01*
X146050Y-127000D01*
X25400Y-127000D01*
X25400Y-1581150D01*
X749300Y-1581150D01*
X749300Y-1206500D01*
X698500Y-1206500D01*
G54D12*
X698500Y-1181100D02*
X762000Y-1181100D01*
X762000Y-1593850D01*
X12700Y-1593850D01*
X12700Y-114300D01*
X158750Y-114300D01*
X158750Y-139700D01*
X177800Y-139700D01*
G54D12*
X414338Y-90488D02*
X414338Y-114300D01*
X527050Y-114300D01*
X527050Y-69850D01*
X609600Y-69850D01*
X609600Y-31750D01*
X812800Y-31750D01*
X812800Y-165100D01*
X846900Y-165100D01*
G54D12*
X330200Y-63500D02*
X361950Y-63500D01*
X361950Y-190500D01*
X457200Y-190500D01*
G54D12*
X457200Y-215900D02*
X349250Y-215900D01*
X349250Y-88900D01*
X330200Y-88900D01*
G54D15*
X870800Y-1588808D02*
X870800Y-1599475D01*
X869689Y-1599475D01*
X867467Y-1598142D01*
X860800Y-1590142D01*
X858578Y-1588808D01*
X856356Y-1588808D01*
X854133Y-1590142D01*
X853022Y-1592808D01*
X853022Y-1595475D01*
X854133Y-1598142D01*
X856356Y-1599475D01*
G54D15*
X870800Y-1575919D02*
X853022Y-1575919D01*
X864133Y-1583919D01*
X866356Y-1583919D01*
X866356Y-1573252D01*
G54D15*
X870800Y-1567296D02*
X870800Y-1568363D01*
X869911Y-1568363D01*
X869911Y-1567296D01*
X870800Y-1567296D01*
X870800Y-1568363D01*
G54D15*
X856356Y-1551740D02*
X867467Y-1551740D01*
X869689Y-1553074D01*
X870800Y-1555740D01*
X870800Y-1558407D01*
X869689Y-1561074D01*
X867467Y-1562407D01*
X856356Y-1562407D01*
X854133Y-1561074D01*
X853022Y-1558407D01*
X853022Y-1555740D01*
X854133Y-1553074D01*
X856356Y-1551740D01*
G54D15*
X853022Y-1536184D02*
X853022Y-1546851D01*
X860800Y-1546851D01*
X860800Y-1545518D01*
X859689Y-1542851D01*
X859689Y-1540184D01*
X860800Y-1537518D01*
X863022Y-1536184D01*
X867467Y-1536184D01*
X869689Y-1537518D01*
X870800Y-1540184D01*
X870800Y-1542851D01*
X869689Y-1545518D01*
X867467Y-1546851D01*
G54D15*
X870800Y-1530228D02*
X870800Y-1531295D01*
X869911Y-1531295D01*
X869911Y-1530228D01*
X870800Y-1530228D01*
X870800Y-1531295D01*
G54D15*
X870800Y-1514672D02*
X870800Y-1525339D01*
X869689Y-1525339D01*
X867467Y-1524006D01*
X860800Y-1516006D01*
X858578Y-1514672D01*
X856356Y-1514672D01*
X854133Y-1516006D01*
X853022Y-1518672D01*
X853022Y-1521339D01*
X854133Y-1524006D01*
X856356Y-1525339D01*
G54D15*
X856356Y-1499116D02*
X867467Y-1499116D01*
X869689Y-1500450D01*
X870800Y-1503116D01*
X870800Y-1505783D01*
X869689Y-1508450D01*
X867467Y-1509783D01*
X856356Y-1509783D01*
X854133Y-1508450D01*
X853022Y-1505783D01*
X853022Y-1503116D01*
X854133Y-1500450D01*
X856356Y-1499116D01*
G54D15*
X859689Y-1494227D02*
X853022Y-1487560D01*
X870800Y-1487560D01*
G54D15*
X853022Y-1482671D02*
X853022Y-1472004D01*
X855244Y-1473338D01*
X858578Y-1476004D01*
X863022Y-1478671D01*
X866356Y-1480004D01*
X870800Y-1480004D01*
X838200Y-1193800D02*
G54D13*
D03*
X838200Y-1168400D02*
G54D13*
D03*
X838200Y-1143000D02*
G54D13*
D03*
X838200Y-1117600D02*
G54D13*
D03*
X812800Y-1117600D02*
G54D13*
D03*
X812800Y-1143000D02*
G54D13*
D03*
X812800Y-1168400D02*
G54D13*
D03*
X812800Y-1193800D02*
G54D13*
D03*
G54D12*
X698500Y-1384300D02*
X673100Y-1384300D01*
X673100Y-1092200D01*
X762000Y-1092200D01*
X762000Y-1168400D01*
X838200Y-1168400D01*
G54D12*
X330200Y-292100D02*
X361950Y-292100D01*
X361950Y-450850D01*
X330200Y-450850D01*
X330200Y-1003300D01*
X838200Y-1003300D01*
X838200Y-1117600D01*
G54D12*
X330200Y-317500D02*
X349250Y-317500D01*
X349250Y-438150D01*
X317500Y-438150D01*
X317500Y-1016000D01*
X812800Y-1016000D01*
X812800Y-1117600D01*
G54D16*
X675000Y-75000D02*
X627000Y-111000D01*
X647700Y-152400D01*
X647700Y-241300D01*
X508000Y-241300D01*
X508000Y-288650D01*
X406400Y-288650D01*
X406400Y-351250D01*
X379250Y-351250D01*
G54D16*
X675000Y-136000D02*
X675000Y-267300D01*
X560000Y-267300D01*
X560000Y-381100D01*
X406400Y-381100D01*
X406400Y-447350D01*
X379250Y-447350D01*
G54D12*
X177800Y-266700D02*
X152400Y-266700D01*
X152400Y-304800D01*
X76200Y-304800D01*
X76200Y-279400D01*
G54D12*
X101600Y-330200D02*
X101600Y-533400D01*
X146050Y-584200D01*
X146050Y-1308100D01*
X146050Y-1320800D01*
G54D12*
X76200Y-279400D02*
X76200Y-533400D01*
X120297Y-585449D01*
X120650Y-1295400D01*
X120650Y-1320800D01*
X69850Y-1320800D02*
G54D13*
D03*
X95250Y-1320800D02*
G54D13*
D03*
X120650Y-1320800D02*
G54D13*
D03*
X146050Y-1320800D02*
G54D13*
D03*
G54D12*
X171450Y-1346200D02*
X69850Y-1346200D01*
X69850Y-1320800D01*
G54D17*
X839250Y-1597900D02*
X799250Y-1597900D01*
X799250Y-1582900D01*
X801750Y-1576900D01*
X806750Y-1573900D01*
X811750Y-1573900D01*
X816750Y-1576900D01*
X819250Y-1582900D01*
X819250Y-1597900D01*
G54D17*
X833250Y-1544900D02*
X823250Y-1544900D01*
X818250Y-1547900D01*
X816750Y-1553900D01*
X818250Y-1559900D01*
X823250Y-1562900D01*
X833250Y-1562900D01*
X838250Y-1559900D01*
X839250Y-1553900D01*
X838250Y-1547900D01*
X833250Y-1544900D01*
G54D17*
X834250Y-1533900D02*
X829250Y-1533900D01*
X824250Y-1527900D01*
X824250Y-1521900D01*
X829250Y-1515900D01*
X834250Y-1515900D01*
X839250Y-1521900D01*
X839250Y-1527900D01*
X834250Y-1533900D01*
G54D17*
X829250Y-1533900D02*
X816750Y-1533900D01*
X814250Y-1530900D01*
X814250Y-1518900D01*
X811750Y-1515900D01*
G54D17*
X833250Y-1486900D02*
X823250Y-1486900D01*
X818250Y-1489900D01*
X816750Y-1495900D01*
X818250Y-1501900D01*
X823250Y-1504900D01*
X833250Y-1504900D01*
X838250Y-1501900D01*
X839250Y-1495900D01*
X838250Y-1489900D01*
X833250Y-1486900D01*
G54D17*
X816750Y-1475900D02*
X816750Y-1457900D01*
G54D17*
X839250Y-1466900D02*
X816750Y-1466900D01*
G54D17*
X839250Y-1446900D02*
X826750Y-1434900D01*
X826750Y-1428900D01*
X826750Y-1440900D01*
X824250Y-1443900D01*
X819250Y-1443900D01*
X816750Y-1440900D01*
X816750Y-1428900D01*
X839250Y-1428900D01*
G54D17*
X839250Y-1417900D02*
X816750Y-1417900D01*
X816750Y-1399900D01*
X819250Y-1399900D01*
G54D17*
X819250Y-1388900D02*
X816750Y-1382900D01*
X816750Y-1375700D01*
X821750Y-1370900D01*
X839250Y-1370900D01*
G54D17*
X831750Y-1370900D02*
X826750Y-1373900D01*
X825750Y-1379900D01*
X826750Y-1385900D01*
X831750Y-1388900D01*
X836750Y-1387700D01*
X839250Y-1382900D01*
X839250Y-1379900D01*
X839250Y-1378700D01*
X836750Y-1373900D01*
X831750Y-1370900D01*
G54D15*
X870750Y-1443675D02*
X852972Y-1443675D01*
X852972Y-1437008D01*
X854083Y-1434342D01*
X856306Y-1433008D01*
X858528Y-1433008D01*
X860750Y-1434342D01*
X861861Y-1437008D01*
X862972Y-1434342D01*
X865194Y-1433008D01*
X867417Y-1433008D01*
X869639Y-1434342D01*
X870750Y-1437008D01*
X870750Y-1443675D01*
G54D15*
X861861Y-1443675D02*
X861861Y-1437008D01*
G54D15*
X869639Y-1420119D02*
X870750Y-1422252D01*
X870750Y-1424919D01*
X869639Y-1427586D01*
X867417Y-1428119D01*
X863639Y-1428119D01*
X861417Y-1426786D01*
X860750Y-1424119D01*
X861417Y-1421452D01*
X862972Y-1420119D01*
X865194Y-1420119D01*
X865194Y-1428119D01*
G54D15*
X860750Y-1415230D02*
X875194Y-1415230D01*
G54D15*
X867417Y-1415230D02*
X870306Y-1413897D01*
X870750Y-1411230D01*
X870306Y-1408563D01*
X868083Y-1407230D01*
X863639Y-1407230D01*
X861417Y-1408563D01*
X860750Y-1411230D01*
X861417Y-1413897D01*
X864083Y-1415230D01*
G54D15*
X859639Y-1397185D02*
X852972Y-1390518D01*
X870750Y-1390518D01*
G54D15*
X870750Y-1384562D02*
X870750Y-1385629D01*
X869861Y-1385629D01*
X869861Y-1384562D01*
X870750Y-1384562D01*
X870750Y-1385629D01*
G54D15*
X870750Y-1371673D02*
X852972Y-1371673D01*
X864083Y-1379673D01*
X866306Y-1379673D01*
X866306Y-1369006D01*
X101600Y-330200D02*
G54D13*
D03*
X76200Y-587375D02*
G54D18*
D03*
X76200Y-968375D02*
G54D18*
D03*
X812800Y-968375D02*
G54D18*
D03*
X812800Y-587375D02*
G54D18*
D03*
X76200Y-777875D02*
G54D18*
D03*
X812800Y-777875D02*
G54D18*
D03*
X215900Y-190500D02*
G54D13*
D03*
X241300Y-165100D02*
G54D13*
D03*
X215900Y-165100D02*
G54D13*
D03*
X241300Y-88900D02*
G54D13*
D03*
X215900Y-88900D02*
G54D13*
D03*
X493200Y-1382500D02*
G54D19*
D03*
X453600Y-1382500D02*
G54D19*
D03*
X414000Y-1382500D02*
G54D19*
D03*
X414200Y-1130200D02*
G54D19*
D03*
X453800Y-1130200D02*
G54D19*
D03*
X493400Y-1130200D02*
G54D19*
D03*
X279400Y-63500D02*
G54D20*
D03*
X215900Y-63500D02*
G54D20*
D03*
X101600Y-1168400D02*
G54D13*
D03*
X101600Y-1193800D02*
G54D13*
D03*
X317500Y-1498600D02*
G54D13*
D03*
X292100Y-1498600D02*
G54D13*
D03*
X596900Y-1490662D02*
G54D13*
D03*
X622300Y-1490662D02*
G54D13*
D03*
X414200Y-1231800D02*
G54D19*
D03*
X453800Y-1231800D02*
G54D19*
D03*
X493400Y-1231800D02*
G54D19*
D03*
X493200Y-1484100D02*
G54D19*
D03*
X453600Y-1484100D02*
G54D19*
D03*
X414000Y-1484100D02*
G54D19*
D03*
X675000Y-75000D02*
G54D18*
D03*
X627000Y-111000D02*
G54D18*
D03*
X675000Y-136000D02*
G54D18*
D03*
X457200Y-190500D02*
G54D13*
D03*
X457200Y-215900D02*
G54D13*
D03*
X431800Y-266700D02*
G54D13*
D03*
G54D12*
X317500Y-266700D02*
X431800Y-266700D01*
G54D12*
X846900Y-114300D02*
X825500Y-114300D01*
X825500Y-12700D01*
X596900Y-12700D01*
X546100Y-12700D01*
X196850Y-12700D01*
X196850Y-317500D01*
X177800Y-317500D01*
X579200Y-88900D02*
G54D13*
D03*
X553800Y-88900D02*
G54D13*
D03*
G54D12*
X553800Y-88900D02*
X553800Y-114300D01*
X622300Y-114300D01*
G54D12*
X673100Y-139700D02*
X723900Y-139700D01*
X723900Y-50800D01*
X622300Y-50800D01*
X622300Y-79375D01*
X609600Y-88900D01*
X579200Y-88900D01*
X553800Y-50800D02*
G54D13*
D03*
X579200Y-50800D02*
G54D13*
D03*
G54D12*
X553800Y-69850D02*
X553800Y-50800D01*
X279400Y-38100D02*
G54D20*
D03*
X215900Y-38100D02*
G54D20*
D03*
X622300Y-330200D02*
G54D13*
D03*
X355600Y-495300D02*
G54D13*
D03*
G54D16*
X457200Y-431800D02*
X457200Y-495300D01*
X355600Y-495300D01*
G54D21*
X673100Y-330200D02*
X622300Y-330200D01*
G54D16*
X457200Y-330200D02*
X457200Y-381000D01*
G54D21*
X177800Y-342900D02*
X158750Y-342900D01*
X158750Y-546100D01*
X171450Y-546100D01*
X171450Y-546100D02*
G54D13*
D03*
X457200Y-330200D02*
G54D22*
D03*
X457200Y-431800D02*
G54D22*
D03*
X673100Y-330200D02*
G54D22*
D03*
X673100Y-431800D02*
G54D22*
D03*
X770000Y-65000D02*
G54D10*
D03*
X110000Y-65000D02*
G54D10*
D03*
X839250Y-282350D02*
G54D13*
D03*
X839250Y-327350D02*
G54D13*
D03*
X839250Y-364850D02*
G54D13*
D03*
X839250Y-402350D02*
G54D13*
D03*
X839250Y-452350D02*
G54D13*
D03*
X813850Y-282350D02*
G54D13*
D03*
X813850Y-327350D02*
G54D13*
D03*
X813850Y-364850D02*
G54D13*
D03*
X813850Y-402350D02*
G54D13*
D03*
X813850Y-452350D02*
G54D13*
D03*
X379250Y-351250D02*
G54D13*
D03*
X379250Y-376650D02*
G54D13*
D03*
X379250Y-447350D02*
G54D13*
D03*
X379250Y-421950D02*
G54D13*
D03*
X76200Y-279400D02*
G54D11*
D03*
X101600Y-254000D02*
G54D11*
D03*
X76200Y-203200D02*
G54D11*
D03*
X76200Y-228600D02*
G54D11*
D03*
X76100Y-177800D02*
G54D11*
D03*
X101500Y-177800D02*
G54D11*
D03*
X101500Y-203200D02*
G54D11*
D03*
X76200Y-254000D02*
G54D11*
D03*
M02*
