%FSLAX34Y34*%
%MOMM*%
%LNCOPPER_BOTTOM*%
G71*
G01*
%ADD10C, 5.00*%
%ADD11C, 1.80*%
%ADD12C, 1.20*%
%ADD13C, 1.80*%
%ADD14C, 0.80*%
%ADD15C, 1.90*%
%ADD16C, 1.90*%
%ADD17C, 3.50*%
%ADD18C, 3.00*%
%ADD19C, 1.80*%
%ADD20C, 1.00*%
%LPD*%
X110000Y-1635000D02*
G54D10*
D03*
X770000Y-1635000D02*
G54D10*
D03*
G54D11*
X379250Y-376650D02*
X379250Y-114381D01*
X444500Y-114381D01*
X444500Y-89694D01*
G54D12*
X76200Y-587375D02*
X723900Y-587375D01*
X723900Y-282350D01*
X839250Y-282350D01*
G54D12*
X812800Y-968375D02*
X858075Y-968375D01*
X858075Y-452350D01*
X839250Y-452350D01*
G54D11*
X414650Y-90400D02*
X414969Y-63500D01*
X355600Y-63500D01*
X355600Y-317500D01*
X355600Y-495300D01*
X82550Y-495300D01*
X19050Y-558800D01*
X19050Y-1193800D01*
X101600Y-1193800D01*
G54D11*
X379250Y-421950D02*
X379250Y-520700D01*
X95250Y-520700D01*
X40575Y-575375D01*
X40575Y-1168400D01*
X101600Y-1168400D01*
X101600Y-228600D02*
G54D13*
D03*
X101500Y-279400D02*
G54D13*
D03*
G54D14*
X177800Y-88900D02*
X154006Y-88900D01*
X154006Y-177800D01*
X101500Y-177800D01*
G54D11*
X19050Y-561975D02*
X19050Y-228600D01*
X76200Y-228600D01*
X76100Y-177800D01*
G54D14*
X304800Y-165100D02*
X241300Y-165100D01*
G54D14*
X215900Y-292100D02*
X177800Y-292100D01*
G54D14*
X330200Y-419100D02*
X304800Y-419100D01*
X304800Y-444500D01*
X279400Y-469900D01*
X76200Y-469900D01*
X50800Y-444500D01*
X50800Y-304800D01*
X50800Y-304800D01*
X50800Y-254000D01*
X76200Y-254000D01*
G54D14*
X330200Y-393700D02*
X279400Y-393700D01*
X279400Y-431800D01*
X266700Y-444500D01*
X133350Y-444500D01*
X120650Y-431800D01*
X120650Y-254000D01*
X101600Y-254000D01*
X215900Y-292100D02*
G54D15*
D03*
X215900Y-393700D02*
G54D15*
D03*
X384650Y-90400D02*
G54D16*
D03*
X414650Y-90400D02*
G54D16*
D03*
X444650Y-90400D02*
G54D16*
D03*
X474650Y-90400D02*
G54D16*
D03*
X504650Y-90400D02*
G54D16*
D03*
X698500Y-1130300D02*
G54D15*
D03*
X698500Y-1155700D02*
G54D15*
D03*
X698500Y-1181100D02*
G54D15*
D03*
X698500Y-1206500D02*
G54D15*
D03*
X698500Y-1231900D02*
G54D15*
D03*
X698500Y-1257300D02*
G54D15*
D03*
X698500Y-1308100D02*
G54D15*
D03*
X698500Y-1333500D02*
G54D15*
D03*
X698500Y-1358900D02*
G54D15*
D03*
X698500Y-1384300D02*
G54D15*
D03*
X698500Y-1409700D02*
G54D15*
D03*
X698500Y-1435100D02*
G54D15*
D03*
X215900Y-1130300D02*
G54D15*
D03*
X215900Y-1155700D02*
G54D15*
D03*
X215900Y-1181100D02*
G54D15*
D03*
X215900Y-1206500D02*
G54D15*
D03*
X215900Y-1231900D02*
G54D15*
D03*
X215900Y-1257300D02*
G54D15*
D03*
X215900Y-1282700D02*
G54D15*
D03*
X215900Y-1308100D02*
G54D15*
D03*
X215900Y-1346200D02*
G54D15*
D03*
X215900Y-1371600D02*
G54D15*
D03*
X215900Y-1397000D02*
G54D15*
D03*
X215900Y-1422400D02*
G54D15*
D03*
X215900Y-1447800D02*
G54D15*
D03*
X215900Y-1473200D02*
G54D15*
D03*
X215900Y-1498600D02*
G54D15*
D03*
X215900Y-1524000D02*
G54D15*
D03*
X846900Y-114300D02*
G54D15*
D03*
X846900Y-139700D02*
G54D15*
D03*
X846900Y-165100D02*
G54D15*
D03*
X846900Y-190500D02*
G54D15*
D03*
X846900Y-215900D02*
G54D15*
D03*
X846900Y-241300D02*
G54D15*
D03*
X177800Y-63500D02*
G54D15*
D03*
X177800Y-88900D02*
G54D15*
D03*
X177800Y-114300D02*
G54D15*
D03*
X177800Y-139700D02*
G54D15*
D03*
X177800Y-165100D02*
G54D15*
D03*
X177800Y-190500D02*
G54D15*
D03*
X177800Y-215900D02*
G54D15*
D03*
X177800Y-241300D02*
G54D15*
D03*
X177800Y-266700D02*
G54D15*
D03*
X177800Y-292100D02*
G54D15*
D03*
X177800Y-317500D02*
G54D15*
D03*
X177800Y-342900D02*
G54D15*
D03*
X177800Y-368300D02*
G54D15*
D03*
X177800Y-393700D02*
G54D15*
D03*
X178600Y-419100D02*
G54D15*
D03*
X330200Y-63500D02*
G54D15*
D03*
X330200Y-114300D02*
G54D15*
D03*
X330200Y-139700D02*
G54D15*
D03*
X330200Y-165100D02*
G54D15*
D03*
X330200Y-190500D02*
G54D15*
D03*
X330200Y-215900D02*
G54D15*
D03*
X330200Y-241300D02*
G54D15*
D03*
X330200Y-266700D02*
G54D15*
D03*
X330200Y-292100D02*
G54D15*
D03*
X330200Y-317500D02*
G54D15*
D03*
X330200Y-342900D02*
G54D15*
D03*
X330200Y-368300D02*
G54D15*
D03*
X330200Y-393700D02*
G54D15*
D03*
X330200Y-419100D02*
G54D15*
D03*
X330200Y-88900D02*
G54D15*
D03*
G54D12*
X812800Y-777875D02*
X841375Y-777875D01*
X841375Y-558800D01*
X791650Y-558800D01*
X791650Y-402900D01*
X839250Y-402350D01*
G54D14*
X177800Y-393700D02*
X215900Y-393700D01*
G54D11*
X101600Y-228600D02*
X139700Y-228600D01*
X139700Y-419100D01*
X260350Y-419100D01*
X260350Y-368300D01*
X304800Y-368300D01*
X304800Y-38100D01*
X527050Y-38100D01*
X527050Y-139700D01*
X406400Y-139700D01*
X406400Y-447350D01*
X379250Y-447350D01*
G54D14*
X101600Y-1193800D02*
X177800Y-1193800D01*
X177800Y-1092200D01*
X762000Y-1092200D01*
X762000Y-1193800D01*
X838200Y-1193800D01*
G54D14*
X673100Y-1092200D02*
X673100Y-1358900D01*
X698500Y-1358900D01*
X838200Y-1193800D02*
G54D15*
D03*
X838200Y-1168400D02*
G54D15*
D03*
X838200Y-1143000D02*
G54D15*
D03*
X838200Y-1117600D02*
G54D15*
D03*
X812800Y-1117600D02*
G54D15*
D03*
X812800Y-1143000D02*
G54D15*
D03*
X812800Y-1168400D02*
G54D15*
D03*
X812800Y-1193800D02*
G54D15*
D03*
G54D14*
X101600Y-279400D02*
X101600Y-330200D01*
X69850Y-1320800D02*
G54D15*
D03*
X95250Y-1320800D02*
G54D15*
D03*
X120650Y-1320800D02*
G54D15*
D03*
X146050Y-1320800D02*
G54D15*
D03*
G54D14*
X95250Y-1320800D02*
X95250Y-1193800D01*
X101600Y-330200D02*
G54D15*
D03*
X76200Y-587375D02*
G54D17*
D03*
X76200Y-968375D02*
G54D17*
D03*
X812800Y-968375D02*
G54D17*
D03*
X812800Y-587375D02*
G54D17*
D03*
X76200Y-777875D02*
G54D17*
D03*
X812800Y-777875D02*
G54D17*
D03*
G54D14*
X215900Y-190500D02*
X215900Y-165100D01*
G54D14*
X215900Y-63500D02*
X177800Y-63500D01*
X215900Y-190500D02*
G54D15*
D03*
X241300Y-165100D02*
G54D15*
D03*
X215900Y-165100D02*
G54D15*
D03*
X241300Y-88900D02*
G54D15*
D03*
X215900Y-88900D02*
G54D15*
D03*
G54D14*
X215900Y-393700D02*
X241300Y-393700D01*
X241300Y-241300D01*
X196850Y-241300D01*
X196850Y-88900D01*
X215900Y-88900D01*
G54D14*
X596900Y-1490662D02*
X596900Y-1320800D01*
X412750Y-1320800D01*
X412750Y-1130300D01*
G54D14*
X622300Y-1490662D02*
X622300Y-1301750D01*
X492125Y-1301750D01*
X492125Y-1130300D01*
G54D14*
X292100Y-1498600D02*
X292100Y-1524000D01*
X492125Y-1524000D01*
X492125Y-1397000D01*
G54D14*
X317500Y-1498600D02*
X317500Y-1511300D01*
X412750Y-1511300D01*
X412750Y-1397000D01*
X493200Y-1382500D02*
G54D18*
D03*
X453600Y-1382500D02*
G54D18*
D03*
X414000Y-1382500D02*
G54D18*
D03*
X414200Y-1130200D02*
G54D18*
D03*
X453800Y-1130200D02*
G54D18*
D03*
X493400Y-1130200D02*
G54D18*
D03*
X279400Y-63500D02*
G54D19*
D03*
X215900Y-63500D02*
G54D19*
D03*
G54D14*
X279400Y-63500D02*
X279400Y-88900D01*
X241300Y-88900D01*
G54D12*
X76200Y-777875D02*
X749300Y-777875D01*
X749300Y-364800D01*
X839250Y-364850D01*
G54D12*
X76200Y-968375D02*
X774700Y-968375D01*
X774700Y-777900D01*
X812800Y-777875D01*
X101600Y-1168400D02*
G54D15*
D03*
X101600Y-1193800D02*
G54D15*
D03*
X317500Y-1498600D02*
G54D15*
D03*
X292100Y-1498600D02*
G54D15*
D03*
X596900Y-1490662D02*
G54D15*
D03*
X622300Y-1490662D02*
G54D15*
D03*
X414200Y-1231800D02*
G54D18*
D03*
X453800Y-1231800D02*
G54D18*
D03*
X493400Y-1231800D02*
G54D18*
D03*
X493200Y-1484100D02*
G54D18*
D03*
X453600Y-1484100D02*
G54D18*
D03*
X414000Y-1484100D02*
G54D18*
D03*
X675000Y-75000D02*
G54D17*
D03*
X627000Y-111000D02*
G54D17*
D03*
X675000Y-136000D02*
G54D17*
D03*
X457200Y-190500D02*
G54D15*
D03*
X457200Y-215900D02*
G54D15*
D03*
X431800Y-266700D02*
G54D15*
D03*
G54D14*
X457200Y-190500D02*
X846900Y-190500D01*
G54D14*
X457200Y-215900D02*
X846900Y-215900D01*
X579200Y-88900D02*
G54D15*
D03*
X553800Y-88900D02*
G54D15*
D03*
G54D11*
X330200Y-342900D02*
X355600Y-342900D01*
G54D12*
X749900Y-587375D02*
X812800Y-587375D01*
G54D14*
X279400Y-38100D02*
X279400Y-12700D01*
X579200Y-12700D01*
X579200Y-50800D01*
X553800Y-50800D02*
G54D15*
D03*
X579200Y-50800D02*
G54D15*
D03*
X279400Y-38100D02*
G54D19*
D03*
X215900Y-38100D02*
G54D19*
D03*
G54D14*
X177800Y-88900D02*
X154006Y-88900D01*
X154006Y-38100D01*
X215900Y-38100D01*
X622300Y-330200D02*
G54D15*
D03*
G54D20*
X622300Y-330200D02*
X622300Y-546100D01*
X171450Y-546100D01*
X355600Y-495300D02*
G54D15*
D03*
G54D20*
X101500Y-203200D02*
X158750Y-203200D01*
X158750Y-342900D01*
X177800Y-342900D01*
X171450Y-546100D02*
G54D15*
D03*
X770000Y-65000D02*
G54D10*
D03*
X110000Y-65000D02*
G54D10*
D03*
X839250Y-282350D02*
G54D15*
D03*
X839250Y-327350D02*
G54D15*
D03*
X839250Y-364850D02*
G54D15*
D03*
X839250Y-402350D02*
G54D15*
D03*
X839250Y-452350D02*
G54D15*
D03*
X813850Y-282350D02*
G54D15*
D03*
X813850Y-327350D02*
G54D15*
D03*
X813850Y-364850D02*
G54D15*
D03*
X813850Y-402350D02*
G54D15*
D03*
X813850Y-452350D02*
G54D15*
D03*
X379250Y-351250D02*
G54D15*
D03*
X379250Y-376650D02*
G54D15*
D03*
X379250Y-447350D02*
G54D15*
D03*
X379250Y-421950D02*
G54D15*
D03*
X76200Y-279400D02*
G54D13*
D03*
X101600Y-254000D02*
G54D13*
D03*
X76200Y-203200D02*
G54D13*
D03*
X76200Y-228600D02*
G54D13*
D03*
X76100Y-177800D02*
G54D13*
D03*
X101500Y-177800D02*
G54D13*
D03*
X101500Y-203200D02*
G54D13*
D03*
X76200Y-254000D02*
G54D13*
D03*
G54D14*
X431800Y-266700D02*
X431800Y-165100D01*
X812800Y-165100D01*
X812800Y-139700D01*
X846900Y-139700D01*
M02*
